<svg viewBox="0 0 155 60" id="danfoss" xmlns="http://www.w3.org/2000/svg"><path d="M140.8 29.3c-.6.8-1.8 1.6-1.3 2.7.8.5 1.7-.1 2.3-.4 1.6-1.1 2.8-2.8 2.9-4.6h-.2c-1.2.6-2.5 1.3-3.7 2.3M127 32.2c0 .4.5.6.9.5 2.2-.6 3.7-2.6 4.2-4.7 0 0 .1-.2 0-.3-.1-.2-.4-.1-.4-.1-2 .8-4.2 2.3-4.7 4.6zm-14.9-13.8c3.3-2.6 7.2-6 9.4-9.6.7-1.1 1.4-3.1 1.4-3.6 0-.6 0-.5-.2-.8-.2-.1-.3-.2-.7 0-.5.2-1.6 1.2-2.4 1.9-3.2 3.7-5.5 7.9-7.5 12.1zm-49.4 18c-.6 1.3-1.6 2.9-.7 4.3.4.3 1 .1 1.4 0 2.7-1.3 4.8-4.1 6.2-6.6.4-.9 1.1-2.3.2-3.2-1-.4-2.1.2-2.9.8-1.8 1.1-3.1 3-4.2 4.7zm-28.5 3.1c4.9-1.3 9.8-2.1 15-2.7l1.1-1.5c2.2-4.2 4.9-9.4 2.4-14.2-.8-1.8-2.6-2.6-4.2-3.2L34.2 39.5zM13.9 54.3c.2.8 1 1.1 1.6 1.3 5.8 1.1 14.6-2.4 20.8-6.3 3.9-2.7 8.2-6.2 11.3-10.1-5.4.8-10.9 2.2-15.9 4l-4.2 6.2c-.8 1.2-1.8 2.8-3.4 2.6-.5-.1-.7-.6-.5-1.1l3.3-6c-3.5 1.2-6.8 2.6-9.8 4.9-1.5 1.1-3.4 2.4-3.2 4.5zM7 15.2C18.9 10.8 32.3 8 46 10l1.5-2.4c2.8-.4 5.7-.8 8.6-1.1l-3.8 5.8c3.7 1.6 6.8 5.5 7.1 9.5 0 5.5-2.5 10.1-5.4 14.4l4-.5c2.8-4.5 10.5-10.3 13.9-5.8 0 0-.5-.7 0 0l1.2-1.6 5.2-.7-6.6 11.1c0 .2 0 .5.3.4 1.6-.7 2.9-1.8 4.2-3 3.2-2.9 5.9-6.1 7.9-9.5l5-.5-2.8 4.9c2.3-1.8 4.7-4.5 7.5-5.7.7-.3 1.7-.1 2.3.2.6.5.9 1.2.8 2.1-1 3.1-3.2 5.8-4.8 8.7-.1.2-.1.5.2.6 3.9-2 7.8-5.8 10.7-9.4l-4.5.5 1.7-3.1 4.3-.4c5.3-8.3 10.5-17.4 19-23.5 1.1-.5 2.6-1.5 3.7-.4 1 1.8-.1 3.7-.8 5.4-3.6 6.7-10.7 12-16.6 16.7l-.5 1.1 10.1-1.1c.2.1.1.5.1.6-3.3 2.8-6.8 5.9-7.3 10.1-.1.7.4 1.1.9 1.4 2.4.6 4-1.8 5.5-3.4.9-1.1 2.1-2.4 2.5-3.8-.8-.4-1.4-1.5-1.3-2.2.1-1.9 1-3.6 2.6-4.7.5-.3 1.3-.5 2-.2.5.3 1 .8 1.1 1.4.2 1.7-.5 3.1-1.1 4.5 3.3-.5 6.1-2.8 8.7-5.2l.3-.5c.1-2.3.5-4.5 2.3-5.9.9-.6 2.1-1.5 3.2-.7.8.4.6 2.2.6 2.2-.5 2.2-4.6 3.8-3.8 7 .1.4-.2 1 .2 1.2 3.4-.9 6.6-2.5 9.7-4 .3-.9 0-2 .3-2.9.5-1.7 1.6-3.6 3.3-4.3.6-.2 1.2-.2 1.7.1.6.6.9 1.4.6 2.2-.3 2.2-2.2 3.7-3.7 5.3-.4 3.7 1 7.3-.4 10.6-1.5 3-4.6 4.5-7.7 4.6-1.3-.1-2.7-.5-3.1-1.9-.7-2.5 1.1-4.7 3-6.2 1.7-1.4 3.6-2.2 5.5-3.1.7-.6.7-1.9.5-2.7-1.7.8-3.8 1.8-5.7 2.5l-4.2 1.7c-.1 3.6-1 7.2-4.2 9.2-2 .9-5 2-7 .4-.9-.8-1-2.1-.8-3.2 1.1-4.2 5.7-5.6 9-7.3.5-.6.3-1.5.2-2.2-2.9 2.4-6.4 4.6-10.1 4.9-2.7 4.1-6.9 10-12.5 9.7-1 0-1.8-.5-2.5-1.1-1.6-1.8-.7-4.5.2-6.3.9-1.9 2.7-3.4 4.1-5-1.6.1-4.7.6-4.7.6l-8.2 15.3 2.3-.1 13.2-1.3 16-1 17.9-.7c1.4-.1 2.9 0 4.3 0l-3.2 2.8c1.4 1 3 2.1 4.5 3v.1l-12.9-.4-16.1.1-20.9.9c-2.4.2-4.8.3-7.2.5l-4.6 8.3-5.6.4 4.7-8 .1-.2-10.4.6-19.1 1.9-15.5 2c.5-.6.6-1.8 1.6-1.7l20.4-3.5 12.5-1.6 13-1.5 4-7c-.2-.2-.4 0-.6.2-2.7 2.3-5.4 4.4-8.7 4.9-.6-.1-1.2-.3-1.7-.7-1.5-2.6 1.5-5.5 2.3-7 0 0 .9-1.4 1.5-2.7 0 0 .1-.1 0-.2s-.3 0-.3 0c-4 3.2-7.9 7.2-10.6 11.4-1.5.1-3 .2-4.4.4.5-1.4 1.3-2.9 2.1-4.2-2.5 1.9-4.8 4-7.6 5-.8.3-2.4.5-3.4-1.6-2.7 2-5.8 4.4-9.3 3-.9-.7-1.2-1.7-1.3-2.8 0-1 .2-2 .6-2.8l-4.3.4C43.1 48.5 31.7 56.2 19 59.1c-3.6.7-7.7 1.2-11.4.3-1.2-.3-2.5-1.4-2.8-2.8-.1-3.3 2.9-5.8 5.5-7.5 5.8-3.7 12-6.2 18.5-8.1l1-1.7 12.7-23.1h.1c-15.5-1.7-29.2 4-41.6 11l-1 .7 7-12.7z" fill="#e1282d"/></svg>