<svg viewBox="0 0 143 60" id="emerson-electric" xmlns="http://www.w3.org/2000/svg"><path d="M65.4 50.3v-4.6h1.4c2 0 4.3.1 4.3 2.2 0 2.2-2.2 2.4-4.7 2.4h-1m0 2.5h1.9l5.6 6.8h5.9l-6.9-7.4c1.4-.5 4.5-1.3 4.5-4.4 0-4.5-6.1-4.6-9.1-4.6H61c-.7 0-.8.1-.8.5v15.9h5.2v-6.8zm40.8 4.7c-2.9 0-4.2-2.4-4.2-6.1 0-3.7 1.3-6.1 4.2-6.1 2.9 0 4.2 2.4 4.2 6.1 0 3.7-1.3 6.1-4.2 6.1m9.7-6.1c0-5.8-3.7-8.6-9.7-8.6s-9.7 2.8-9.7 8.6 3.7 8.6 9.7 8.6c6 0 9.7-2.8 9.7-8.6m-67.7.9h7.4v-2.6h-7.4v-4h8.3l1.1-2.6h-14c-.5 0-.7.1-.8.4v16.1h14.5V57h-9.2v-4.7m87.7-9.1h-3.6s.1 9.9.1 10.7l-8.8-10.4c-.2-.3-.3-.3-.9-.3h-3.3c-.5 0-.7.1-.7.4v16.1h4.5V48.5s9 10.6 9.4 11c.4.4.9.3.9.3h3.4V43.1l-1 .1M5.3 52.3h7.4v-2.6H5.3v-4h8.3l1.1-2.6H.8c-.6 0-.7.1-.8.5v16h14.5V57H5.3v-4.7m23.2 1.1l-6.3-9.8c-.2-.3-.3-.3-.9-.3h-4v16.4h4.5v-11s6.2 9.9 6.8 10.6c.6-.7 6.5-10.6 6.5-10.6v11h4.5V43.3h-4c-.6 0-.7 0-.9.3l-6 9.8h-.2m63.6-2.7c-3.3-1.6-7.7-1.7-7.7-3.5 0-1.4 1.4-1.9 3.1-1.9 2.7 0 5 1.1 5.2 1.1.1 0 .3-.1.4-.2l.3-.3 1.3-1.7c-.1 0-.3-.1-.6-.3-.3-.1-.4-.2-.5-.2-1.3-.4-3.8-.9-6.1-.9-4.3 0-8.1 1.4-8.1 4.9 0 2 .9 3.3 2.9 4 3.8 1.5 7.6 1.4 7.6 3.5 0 1.5-.9 2.2-3 2.2-3.2 0-5.9-1.1-6.1-1.1-.1 0-.3.1-.4.2l-.4.8-1 1.4.6.2c1.2.5 4.3 1.1 7.2 1.1 4.7 0 8.1-1.5 8-5.1 0-1.8-.8-3.3-2.7-4.2m47.5 7v1.9h-.3v-1.9h-.7v-.2h1.7v.2h-.7zm3.1 1.9v-1.9l-.7 1.9h-.3l-.7-1.9v1.9h-.2v-2.1h.4l.7 1.8.7-1.8h.4v2.1h-.3z" fill="#024786"/><linearGradient id="ada" gradientUnits="userSpaceOnUse" x1="-201.953" y1="-399.336" x2="-200.737" y2="-399.336" gradientTransform="rotate(30.29 -14320.962 3069.245) scale(17.0525)"><stop offset="0" stop-color="#949699"/><stop offset=".103" stop-color="#a0a2a3"/><stop offset=".284" stop-color="#bcbebf"/><stop offset=".5" stop-color="#e8e8e8"/><stop offset=".6" stop-color="#dddedf"/><stop offset=".772" stop-color="#c3c3c5"/><stop offset=".993" stop-color="#97989b"/><stop offset="1" stop-color="#949699"/></linearGradient><path d="M70 37s.1 0 0 0c.1-.1.1-.1 0 0l.1-.1c.1-.2-.2-.5-.5-1L57.8 21.5c-1.1-1.3-1-1.6-.9-1.7l-2.1 3.5v.1c-.1.2.1.5.5 1L67 38.8c1 1.3 1.1 1.5 1 1.7l2-3.5z" fill="url(#ada)"/><linearGradient id="adb" gradientUnits="userSpaceOnUse" x1="-201.953" y1="-400.345" x2="-200.737" y2="-400.345" gradientTransform="rotate(30.29 -14320.962 3069.245) scale(17.0525)"><stop offset="0" stop-color="#949699"/><stop offset=".103" stop-color="#a0a2a3"/><stop offset=".284" stop-color="#bcbebf"/><stop offset=".5" stop-color="#e8e8e8"/><stop offset=".6" stop-color="#dddedf"/><stop offset=".772" stop-color="#c3c3c5"/><stop offset=".993" stop-color="#97989b"/><stop offset="1" stop-color="#949699"/></linearGradient><path d="M78.8 22.2s.1 0 0 0c.1-.1.1-.1 0 0l.1-.1c.1-.2-.2-.5-.5-1L66.6 6.7c-1.1-1.3-1-1.6-.9-1.7l-2.1 3.5v.1c-.1.2.1.5.5 1L75.8 24c1 1.3 1.1 1.5 1 1.7l2-3.5z" fill="url(#adb)"/><linearGradient id="adc" gradientUnits="userSpaceOnUse" x1="-201.953" y1="-400.686" x2="-200.737" y2="-400.686" gradientTransform="rotate(30.29 -14320.962 3069.245) scale(17.0525)"><stop offset="0" stop-color="#949699"/><stop offset=".103" stop-color="#a0a2a3"/><stop offset=".284" stop-color="#bcbebf"/><stop offset=".5" stop-color="#e8e8e8"/><stop offset=".6" stop-color="#dddedf"/><stop offset=".772" stop-color="#c3c3c5"/><stop offset=".993" stop-color="#97989b"/><stop offset="1" stop-color="#949699"/></linearGradient><path d="M68.6 0l-2.1 3.5v.1c-.1.2.1.5.5 1L78.7 19c1 1.3 1.1 1.5 1 1.7l2-3.4v-.1c.1-.2-.2-.5-.5-1L69.6 1.7c-1.1-1.3-1-1.6-1-1.7z" fill="url(#adc)"/><linearGradient id="add" gradientUnits="userSpaceOnUse" x1="-201.953" y1="-400.009" x2="-200.737" y2="-400.009" gradientTransform="rotate(30.29 -14320.962 3069.245) scale(17.0525)"><stop offset="0" stop-color="#949699"/><stop offset=".103" stop-color="#a0a2a3"/><stop offset=".284" stop-color="#bcbebf"/><stop offset=".5" stop-color="#e8e8e8"/><stop offset=".6" stop-color="#dddedf"/><stop offset=".772" stop-color="#c3c3c5"/><stop offset=".993" stop-color="#97989b"/><stop offset="1" stop-color="#949699"/></linearGradient><path d="M75.9 27.1s.1-.1 0 0l.1-.1c.1-.2-.2-.5-.5-1L63.7 11.7c-1.1-1.3-1-1.6-.9-1.7l-2.1 3.5v.1c-.1.2.1.5.5 1L72.9 29c1 1.3 1.1 1.5 1 1.7l2-3.6z" fill="url(#add)"/><linearGradient id="ade" gradientUnits="userSpaceOnUse" x1="-201.953" y1="-399.673" x2="-200.737" y2="-399.673" gradientTransform="rotate(30.29 -14320.962 3069.245) scale(17.0525)"><stop offset="0" stop-color="#949699"/><stop offset=".103" stop-color="#a0a2a3"/><stop offset=".284" stop-color="#bcbebf"/><stop offset=".5" stop-color="#e8e8e8"/><stop offset=".6" stop-color="#dddedf"/><stop offset=".772" stop-color="#c3c3c5"/><stop offset=".993" stop-color="#97989b"/><stop offset="1" stop-color="#949699"/></linearGradient><path d="M73 32l.1-.1c.1-.2-.2-.5-.5-1L60.8 16.6c-1.1-1.3-1-1.6-.9-1.7l-2.1 3.5v.1c-.1.2.1.5.5 1L70 33.8c1 1.3 1.1 1.5 1 1.7l2-3.5z" fill="url(#ade)"/><linearGradient id="adf" gradientUnits="userSpaceOnUse" x1="-201.875" y1="-399.997" x2="-200.696" y2="-399.997" gradientTransform="rotate(30.29 -14382.466 3074.52) scale(17.1144)"><stop offset="0" stop-color="#014887"/><stop offset=".202" stop-color="#014887"/><stop offset=".275" stop-color="#1b5591"/><stop offset=".425" stop-color="#5276a9"/><stop offset=".506" stop-color="#728ab7"/><stop offset=".56" stop-color="#5d7dae"/><stop offset=".725" stop-color="#1d5692"/><stop offset=".803" stop-color="#014887"/><stop offset="1" stop-color="#014887"/></linearGradient><path d="M74.1 26.7L57.9 20c-.2-.1-.5-.2-.8-.2h-.2l-.1.1-2 3.5c.1-.1.4-.2 1.8.4l16.2 6.7c.2.1.8.3 1 .1l.1-.1 2-3.4c-.1 0-.3.2-1.8-.4z" fill="url(#adf)"/><linearGradient id="adg" gradientUnits="userSpaceOnUse" x1="-201.876" y1="-400.666" x2="-200.697" y2="-400.666" gradientTransform="rotate(30.29 -14382.466 3074.52) scale(17.1144)"><stop offset="0" stop-color="#014887"/><stop offset=".202" stop-color="#014887"/><stop offset=".275" stop-color="#1b5591"/><stop offset=".425" stop-color="#5276a9"/><stop offset=".506" stop-color="#728ab7"/><stop offset=".56" stop-color="#5d7dae"/><stop offset=".725" stop-color="#1d5692"/><stop offset=".803" stop-color="#014887"/><stop offset="1" stop-color="#014887"/></linearGradient><path d="M80 16.8l-16.2-6.7c-.2-.1-.6-.2-.8-.2h-.2l-.1.1-2 3.5c.1-.1.4-.2 1.8.4l16.2 6.7c.2.1.8.3 1 .1l.1-.1 2-3.4c-.1.1-.4.2-1.8-.4z" fill="url(#adg)"/><linearGradient id="adh" gradientUnits="userSpaceOnUse" x1="-201.875" y1="-400.336" x2="-200.696" y2="-400.336" gradientTransform="rotate(30.29 -14382.466 3074.52) scale(17.1144)"><stop offset="0" stop-color="#014887"/><stop offset=".202" stop-color="#014887"/><stop offset=".275" stop-color="#1b5591"/><stop offset=".425" stop-color="#5276a9"/><stop offset=".506" stop-color="#728ab7"/><stop offset=".56" stop-color="#5d7dae"/><stop offset=".725" stop-color="#1d5692"/><stop offset=".803" stop-color="#014887"/><stop offset="1" stop-color="#014887"/></linearGradient><path d="M77.1 21.7L60.9 15c-.2-.1-.5-.2-.8-.2h-.2l-.1.1-2 3.5c.1-.1.4-.2 1.8.4l16.2 6.7c.2.1.8.3 1 .1l.1-.1 2-3.4c-.1 0-.4.2-1.8-.4z" fill="url(#adh)"/></svg>