<svg viewBox="0 0 110.817 32.7128" fill="none" xmlns="http://www.w3.org/2000/svg" xmlns:xlink="http://www.w3.org/1999/xlink">
	<defs/>
	<path id="Fill-11" d="M12.6 4.76C10.07 3.63 8.56 3.2 7.06 3.2C5.48 3.2 4.47 3.76 4.47 4.63C4.47 7.26 13.39 6.52 13.39 12.6C13.39 15.96 10.58 17.91 6.67 17.91C3.6 17.91 2.09 17.11 0.35 16.22L0.35 12.45C2.86 14.12 4.4 14.7 6.33 14.7C8.01 14.7 8.92 14.12 8.92 13.09C8.92 10.23 0 11.28 0 5.01C0 1.99 2.61 0 6.67 0C8.63 0 10.4 0.41 12.6 1.35L12.6 4.76Z" fill="#3DCD58" fill-opacity="1.000000" fill-rule="evenodd"/>
	<path id="Fill-11" d="M7.06 3.2C5.48 3.2 4.47 3.76 4.47 4.63C4.47 7.26 13.39 6.52 13.39 12.6C13.39 15.96 10.58 17.91 6.67 17.91C3.6 17.91 2.09 17.11 0.35 16.22L0.35 12.45C2.86 14.12 4.4 14.7 6.33 14.7C8.01 14.7 8.92 14.12 8.92 13.09C8.92 10.23 0 11.28 0 5.01C0 1.99 2.61 0 6.67 0C8.63 0 10.4 0.41 12.6 1.35L12.6 4.76C10.07 3.63 8.56 3.2 7.06 3.2Z" stroke="#000000" stroke-opacity="0" stroke-width="1.000000"/>
	<path id="Fill-12" d="M25.09 17.11C23.6 17.65 22.35 17.9 21.09 17.9C16.94 17.9 14.25 15.48 14.25 11.8C14.25 8.19 17.04 5.64 20.94 5.64C22.14 5.64 23.68 5.94 24.91 6.4L24.91 9.17C23.94 8.65 22.81 8.37 21.88 8.37C19.65 8.37 18.22 9.71 18.22 11.78C18.22 13.87 19.63 15.25 21.76 15.25C22.65 15.25 23.45 15.05 25.09 14.43L25.09 17.11Z" fill="#3DCD58" fill-opacity="1.000000" fill-rule="evenodd"/>
	<path id="Fill-12" d="M21.09 17.9C16.94 17.9 14.25 15.48 14.25 11.8C14.25 8.19 17.04 5.64 20.94 5.64C22.14 5.64 23.68 5.94 24.91 6.4L24.91 9.17C23.94 8.65 22.81 8.37 21.88 8.37C19.65 8.37 18.22 9.71 18.22 11.78C18.22 13.87 19.63 15.25 21.76 15.25C22.65 15.25 23.45 15.05 25.09 14.43L25.09 17.11C23.6 17.65 22.35 17.9 21.09 17.9Z" stroke="#000000" stroke-opacity="0" stroke-width="1.000000"/>
	<path id="Fill-13" d="M57.48 10.45C57.63 8.81 58.59 7.86 60.05 7.86C61.48 7.86 62.46 8.83 62.61 10.45L57.48 10.45ZM59.79 5.64C56.14 5.64 53.55 8.21 53.55 11.84C53.55 15.49 56.25 17.9 60.41 17.9C61.33 17.9 63.56 17.9 65.68 16.33L65.68 14.02C63.94 15.26 62.79 15.69 61.31 15.69C58.96 15.69 57.53 14.48 57.4 12.41L65.89 12.41C66.07 8.09 63.23 5.64 59.79 5.64Z" fill="#3DCD58" fill-opacity="1.000000" fill-rule="evenodd"/>
	<path id="Fill-13" d="M60.05 7.86C61.48 7.86 62.46 8.83 62.61 10.45L57.48 10.45C57.63 8.81 58.59 7.86 60.05 7.86ZM53.55 11.84C53.55 15.49 56.25 17.9 60.41 17.9C61.33 17.9 63.56 17.9 65.68 16.33L65.68 14.02C63.94 15.26 62.79 15.69 61.31 15.69C58.96 15.69 57.53 14.48 57.4 12.41L65.89 12.41C66.07 8.09 63.23 5.64 59.79 5.64C56.14 5.64 53.55 8.21 53.55 11.84Z" stroke="#000000" stroke-opacity="0" stroke-width="1.000000"/>
	<path id="Fill-14" d="M67.33 17.69L71.04 17.69L71.04 5.86L67.33 5.86L67.33 17.69Z" fill="#3DCD58" fill-opacity="1.000000" fill-rule="evenodd"/>
	<path id="Fill-14" d="M71.04 17.69L71.04 5.86L67.33 5.86L67.33 17.69L71.04 17.69Z" stroke="#000000" stroke-opacity="0" stroke-width="1.000000"/>
	<path id="Fill-15" d="M81.37 14.46C80.59 15.15 79.95 15.43 79.16 15.43C77.41 15.43 76.3 13.99 76.3 11.84C76.3 9.47 77.41 8.11 79.28 8.11C79.95 8.11 80.82 8.42 81.37 8.81L81.37 14.46ZM81.37 0.21L81.37 6.38C80.36 5.89 79.36 5.64 78.28 5.64C74.9 5.64 72.56 8.14 72.56 11.76C72.56 15.3 74.9 17.91 78.07 17.91C79.33 17.91 80.31 17.58 81.37 16.73L81.37 17.69L85.08 17.69L85.08 0.21L81.37 0.21Z" fill="#3DCD58" fill-opacity="1.000000" fill-rule="evenodd"/>
	<path id="Fill-15" d="M79.16 15.43C77.41 15.43 76.3 13.99 76.3 11.84C76.3 9.47 77.41 8.11 79.28 8.11C79.95 8.11 80.82 8.42 81.37 8.81L81.37 14.46C80.59 15.15 79.95 15.43 79.16 15.43ZM81.37 6.38C80.36 5.89 79.36 5.64 78.28 5.64C74.9 5.64 72.56 8.14 72.56 11.76C72.56 15.3 74.9 17.91 78.07 17.91C79.33 17.91 80.31 17.58 81.37 16.73L81.37 17.69L85.08 17.69L85.08 0.21L81.37 0.21L81.37 6.38Z" stroke="#000000" stroke-opacity="0" stroke-width="1.000000"/>
	<path id="Fill-16" d="M90.57 10.45C90.72 8.81 91.67 7.86 93.13 7.86C94.57 7.86 95.55 8.83 95.71 10.45L90.57 10.45ZM92.88 5.64C89.23 5.64 86.64 8.21 86.64 11.84C86.64 15.49 89.34 17.9 93.5 17.9C94.42 17.9 96.65 17.9 98.78 16.33L98.78 14.02C97.04 15.26 95.88 15.69 94.39 15.69C92.06 15.69 90.62 14.48 90.49 12.41L98.98 12.41C99.15 8.09 96.31 5.64 92.88 5.64Z" fill="#3DCD58" fill-opacity="1.000000" fill-rule="evenodd"/>
	<path id="Fill-16" d="M93.13 7.86C94.57 7.86 95.55 8.83 95.71 10.45L90.57 10.45C90.72 8.81 91.67 7.86 93.13 7.86ZM86.64 11.84C86.64 15.49 89.34 17.9 93.5 17.9C94.42 17.9 96.65 17.9 98.78 16.33L98.78 14.02C97.04 15.26 95.88 15.69 94.39 15.69C92.06 15.69 90.62 14.48 90.49 12.41L98.98 12.41C99.15 8.09 96.31 5.64 92.88 5.64C89.23 5.64 86.64 8.21 86.64 11.84Z" stroke="#000000" stroke-opacity="0" stroke-width="1.000000"/>
	<path id="Fill-17" d="M104.53 9.25C105.63 6.78 106.92 5.63 108.35 5.63C109.1 5.63 109.74 5.91 110.81 6.71L109.79 9.99C108.82 9.37 108.18 9.12 107.59 9.12C106.23 9.12 105.35 10.4 104.53 12.57L104.53 17.67L100.82 17.67L100.82 5.85L104.53 5.85L104.53 9.25Z" fill="#3DCD58" fill-opacity="1.000000" fill-rule="evenodd"/>
	<path id="Fill-17" d="M108.35 5.63C109.1 5.63 109.74 5.91 110.81 6.71L109.79 9.99C108.82 9.37 108.18 9.12 107.59 9.12C106.23 9.12 105.35 10.4 104.53 12.57L104.53 17.67L100.82 17.67L100.82 5.85L104.53 5.85L104.53 9.25C105.63 6.78 106.92 5.63 108.35 5.63Z" stroke="#000000" stroke-opacity="0" stroke-width="1.000000"/>
	<path id="Fill-18" d="M71.21 0.88C71.56 1.8 70.93 3.08 69.81 3.74C68.69 4.4 67.51 4.19 67.16 3.27C66.81 2.35 67.43 1.07 68.55 0.41C69.67 -0.25 70.86 -0.04 71.21 0.88Z" fill="#3DCD58" fill-opacity="1.000000" fill-rule="evenodd"/>
	<path id="Fill-18" d="M69.81 3.74C68.69 4.4 67.51 4.19 67.16 3.27C66.81 2.35 67.43 1.07 68.55 0.41C69.67 -0.25 70.86 -0.04 71.21 0.88C71.56 1.8 70.93 3.08 69.81 3.74Z" stroke="#000000" stroke-opacity="0" stroke-width="1.000000"/>
	<path id="Fill-19" d="M38.46 10.16C38.46 6.95 36.28 5.64 34.13 5.64C32.67 5.64 31.46 6.26 30.39 7.62L30.34 0.21L26.62 0.21L26.62 17.65L30.34 17.65L30.34 10.16C31.21 8.9 31.95 8.36 32.82 8.36C33.97 8.36 34.74 9.19 34.74 10.95L34.74 15.11C35.99 14.47 37.26 14.08 38.46 13.93L38.46 10.16Z" fill="#3DCD58" fill-opacity="1.000000" fill-rule="evenodd"/>
	<path id="Fill-19" d="M34.13 5.64C32.67 5.64 31.46 6.26 30.39 7.62L30.34 0.21L26.62 0.21L26.62 17.65L30.34 17.65L30.34 10.16C31.21 8.9 31.95 8.36 32.82 8.36C33.97 8.36 34.74 9.19 34.74 10.95L34.74 15.11C35.99 14.47 37.26 14.08 38.46 13.93L38.46 10.16C38.46 6.95 36.28 5.64 34.13 5.64Z" stroke="#000000" stroke-opacity="0" stroke-width="1.000000"/>
	<path id="Fill-20" d="M47.78 5.64C46.26 5.64 45.11 6.2 43.92 7.55L43.92 5.86L40.21 5.86L40.21 13.9C41.5 14.03 43.14 14.62 43.92 15.59L43.92 10.07C44.9 8.6 45.59 8.11 46.52 8.11C47.57 8.11 48.37 8.81 48.37 10.47L48.37 17.66L52.08 17.66L52.08 10.17C52.08 6.68 49.62 5.64 47.78 5.64Z" fill="#3DCD58" fill-opacity="1.000000" fill-rule="evenodd"/>
	<path id="Fill-20" d="M43.92 7.55L43.92 5.86L40.21 5.86L40.21 13.9C41.5 14.03 43.14 14.62 43.92 15.59L43.92 10.07C44.9 8.6 45.59 8.11 46.52 8.11C47.57 8.11 48.37 8.81 48.37 10.47L48.37 17.66L52.08 17.66L52.08 10.17C52.08 6.68 49.62 5.64 47.78 5.64C46.26 5.64 45.11 6.2 43.92 7.55Z" stroke="#000000" stroke-opacity="0" stroke-width="1.000000"/>
	<path id="Fill-21" d="M54.13 21.06L49.82 21.06L49.82 24.12L53.98 24.12L53.98 25.44L49.82 25.44L49.82 28.6L54.26 28.6L54.26 29.92L48.37 29.92L48.37 19.74L54.13 19.74L54.13 21.06Z" fill="#3DCD58" fill-opacity="1.000000" fill-rule="evenodd"/>
	<path id="Fill-21" d="M49.82 21.06L49.82 24.12L53.98 24.12L53.98 25.44L49.82 25.44L49.82 28.6L54.26 28.6L54.26 29.92L48.37 29.92L48.37 19.74L54.13 19.74L54.13 21.06L49.82 21.06Z" stroke="#000000" stroke-opacity="0" stroke-width="1.000000"/>
	<path id="Fill-22" d="M57.66 29.92L58.98 29.92L58.98 19.74L57.66 19.74L57.66 29.92Z" fill="#3DCD58" fill-opacity="1.000000" fill-rule="evenodd"/>
	<path id="Fill-22" d="M58.98 29.92L58.98 19.74L57.66 19.74L57.66 29.92L58.98 29.92Z" stroke="#000000" stroke-opacity="0" stroke-width="1.000000"/>
	<path id="Fill-23" d="M65.53 24.22C66.46 24.22 67.04 24.86 67.09 25.88L63.72 25.88C63.9 24.82 64.51 24.22 65.53 24.22ZM63.7 26.76L68.41 26.76C68.41 24.28 67.27 23.08 65.5 23.08C63.65 23.08 62.37 24.44 62.37 26.47C62.37 28.33 63.53 30.05 65.61 30.05C66.75 30.05 67.48 29.8 68.29 29.26L68.29 27.97C67.51 28.48 66.75 28.78 65.94 28.78C64.66 28.78 63.9 28.09 63.7 26.76Z" fill="#3DCD58" fill-opacity="1.000000" fill-rule="evenodd"/>
	<path id="Fill-23" d="M67.09 25.88L63.72 25.88C63.9 24.82 64.51 24.22 65.53 24.22C66.46 24.22 67.04 24.86 67.09 25.88ZM68.41 26.76C68.41 24.28 67.27 23.08 65.5 23.08C63.65 23.08 62.37 24.44 62.37 26.47C62.37 28.33 63.53 30.05 65.61 30.05C66.75 30.05 67.48 29.8 68.29 29.26L68.29 27.97C67.51 28.48 66.75 28.78 65.94 28.78C64.66 28.78 63.9 28.09 63.7 26.76L68.41 26.76Z" stroke="#000000" stroke-opacity="0" stroke-width="1.000000"/>
	<path id="Fill-24" d="M77.04 24.97C76.28 24.45 75.77 24.3 75.19 24.3C73.98 24.3 73.14 25.23 73.14 26.58C73.14 27.97 74.04 28.8 75.41 28.8C75.98 28.8 76.52 28.66 77.19 28.36L77.19 29.66C76.74 29.87 75.89 30.05 75.19 30.05C73.19 30.05 71.8 28.67 71.8 26.7C71.8 24.48 73.07 23.08 75.1 23.08C75.88 23.08 76.4 23.26 77.04 23.54L77.04 24.97Z" fill="#3DCD58" fill-opacity="1.000000" fill-rule="evenodd"/>
	<path id="Fill-24" d="M75.19 24.3C73.98 24.3 73.14 25.23 73.14 26.58C73.14 27.97 74.04 28.8 75.41 28.8C75.98 28.8 76.52 28.66 77.19 28.36L77.19 29.66C76.74 29.87 75.89 30.05 75.19 30.05C73.19 30.05 71.8 28.67 71.8 26.7C71.8 24.48 73.07 23.08 75.1 23.08C75.88 23.08 76.4 23.26 77.04 23.54L77.04 24.97C76.28 24.45 75.77 24.3 75.19 24.3Z" stroke="#000000" stroke-opacity="0" stroke-width="1.000000"/>
	<path id="Fill-25" d="M83.06 23.21L85.18 23.21L85.18 24.4L83.06 24.4L83.06 27.84C83.06 28.63 83.63 28.86 84.02 28.86C84.5 28.86 84.99 28.69 85.53 28.36L85.53 29.6C85.06 29.86 84.35 30.05 83.91 30.05C82.47 30.05 81.75 29.15 81.75 27.94L81.75 24.4L80.58 24.4L80.58 24.25L83.06 21.82L83.06 23.21Z" fill="#3DCD58" fill-opacity="1.000000" fill-rule="evenodd"/>
	<path id="Fill-25" d="M85.18 23.21L85.18 24.4L83.06 24.4L83.06 27.84C83.06 28.63 83.63 28.86 84.02 28.86C84.5 28.86 84.99 28.69 85.53 28.36L85.53 29.6C85.06 29.86 84.35 30.05 83.91 30.05C82.47 30.05 81.75 29.15 81.75 27.94L81.75 24.4L80.58 24.4L80.58 24.25L83.06 21.82L83.06 23.21L85.18 23.21Z" stroke="#000000" stroke-opacity="0" stroke-width="1.000000"/>
	<path id="Fill-26" d="M90.24 23.21L90.24 24.76C90.91 23.57 91.58 23.08 92.21 23.08C92.74 23.08 93.25 23.33 93.8 23.86L93.1 25.02C92.7 24.62 92.18 24.35 91.86 24.35C90.95 24.35 90.24 25.27 90.24 26.42L90.24 29.92L88.92 29.92L88.92 23.21L90.24 23.21Z" fill="#3DCD58" fill-opacity="1.000000" fill-rule="evenodd"/>
	<path id="Fill-26" d="M90.24 24.76C90.91 23.57 91.58 23.08 92.21 23.08C92.74 23.08 93.25 23.33 93.8 23.86L93.1 25.02C92.7 24.62 92.18 24.35 91.86 24.35C90.95 24.35 90.24 25.27 90.24 26.42L90.24 29.92L88.92 29.92L88.92 23.21L90.24 23.21L90.24 24.76Z" stroke="#000000" stroke-opacity="0" stroke-width="1.000000"/>
	<path id="Fill-27" d="M107.35 24.97C106.58 24.45 106.08 24.3 105.49 24.3C104.29 24.3 103.46 25.23 103.46 26.58C103.46 27.97 104.35 28.8 105.72 28.8C106.29 28.8 106.82 28.66 107.5 28.36L107.5 29.66C107.04 29.87 106.19 30.05 105.49 30.05C103.5 30.05 102.1 28.67 102.1 26.7C102.1 24.48 103.38 23.08 105.41 23.08C106.19 23.08 106.7 23.26 107.35 23.54L107.35 24.97Z" fill="#3DCD58" fill-opacity="1.000000" fill-rule="evenodd"/>
	<path id="Fill-27" d="M105.49 24.3C104.29 24.3 103.46 25.23 103.46 26.58C103.46 27.97 104.35 28.8 105.72 28.8C106.29 28.8 106.82 28.66 107.5 28.36L107.5 29.66C107.04 29.87 106.19 30.05 105.49 30.05C103.5 30.05 102.1 28.67 102.1 26.7C102.1 24.48 103.38 23.08 105.41 23.08C106.19 23.08 106.7 23.26 107.35 23.54L107.35 24.97C106.58 24.45 106.08 24.3 105.49 24.3Z" stroke="#000000" stroke-opacity="0" stroke-width="1.000000"/>
	<path id="Fill-28" d="M97.31 29.92L98.63 29.92L98.63 23.21L97.31 23.21L97.31 29.92Z" fill="#3DCD58" fill-opacity="1.000000" fill-rule="evenodd"/>
	<path id="Fill-28" d="M98.63 29.92L98.63 23.21L97.31 23.21L97.31 29.92L98.63 29.92Z" stroke="#000000" stroke-opacity="0" stroke-width="1.000000"/>
	<path id="Fill-29" d="M98.67 20.8C98.8 21.12 98.58 21.58 98.18 21.81C97.78 22.05 97.35 21.97 97.23 21.65C97.11 21.32 97.33 20.87 97.73 20.63C98.13 20.39 98.55 20.47 98.67 20.8Z" fill="#3DCD58" fill-opacity="1.000000" fill-rule="evenodd"/>
	<path id="Fill-29" d="M98.18 21.81C97.78 22.05 97.35 21.97 97.23 21.65C97.11 21.32 97.33 20.87 97.73 20.63C98.13 20.39 98.55 20.47 98.67 20.8C98.8 21.12 98.58 21.58 98.18 21.81Z" stroke="#000000" stroke-opacity="0" stroke-width="1.000000"/>
	<path id="Fill-30" d="M39.5 21.34C39.27 21.34 39.17 21.38 39.07 21.48C39.04 21.53 39.02 21.57 39.01 21.65L37.82 26.15C37.54 27.72 35.61 29.3 33.08 29.3L29.57 29.3L30.18 26.99L32.44 26.99C32.67 26.99 32.85 26.9 33 26.74C33.05 26.67 33.13 26.57 33.14 26.46L34.07 22.54C34.35 20.96 36.01 19.22 38.54 19.22L42.13 19.22L41.67 21.34L39.5 21.34ZM40.31 24.08L40.71 22.63L44.36 22.63C44.81 20.52 44.46 18.56 43.18 17.28C40.59 14.69 35.17 15.57 31.13 19.44C30.5 20.03 29.97 20.68 29.48 21.35L31.68 21.35L31.17 22.8L28.54 22.8C28.29 23.26 28.06 23.72 27.88 24.18L30.99 24.18L30.49 25.64L27.43 25.64C26.91 27.87 27.24 29.94 28.56 31.26C31.12 33.82 36.52 32.92 40.56 29.06C41.26 28.39 41.85 27.66 42.37 26.92L39.55 26.92L39.98 25.46L43.28 25.46C43.52 25 43.75 24.54 43.92 24.08L40.31 24.08Z" fill="#3DCD58" fill-opacity="1.000000" fill-rule="evenodd"/>
	<path id="Fill-30" d="M39.07 21.48C39.04 21.53 39.02 21.57 39.01 21.65L37.82 26.15C37.54 27.72 35.61 29.3 33.08 29.3L29.57 29.3L30.18 26.99L32.44 26.99C32.67 26.99 32.85 26.9 33 26.74C33.05 26.67 33.13 26.57 33.14 26.46L34.07 22.54C34.35 20.96 36.01 19.22 38.54 19.22L42.13 19.22L41.67 21.34L39.5 21.34C39.27 21.34 39.17 21.38 39.07 21.48ZM40.71 22.63L44.36 22.63C44.81 20.52 44.46 18.56 43.18 17.28C40.59 14.69 35.17 15.57 31.13 19.44C30.5 20.03 29.97 20.68 29.48 21.35L31.68 21.35L31.17 22.8L28.54 22.8C28.29 23.26 28.06 23.72 27.88 24.18L30.99 24.18L30.49 25.64L27.43 25.64C26.91 27.87 27.24 29.94 28.56 31.26C31.12 33.82 36.52 32.92 40.56 29.06C41.26 28.39 41.85 27.66 42.37 26.92L39.55 26.92L39.98 25.46L43.28 25.46C43.52 25 43.75 24.54 43.92 24.08L40.31 24.08L40.71 22.63Z" stroke="#000000" stroke-opacity="0" stroke-width="1.000000"/>
</svg>
