<svg viewBox="0 0 200 60" id="honeywell" xmlns="http://www.w3.org/2000/svg"><path d="M102.2 29.5c0-6.5-4.8-11.7-11.6-11.7h-.1c-6.7 0-11.5 5.5-11.5 12s4.8 11.5 11.5 11.5c5.1 0 10.8-2.3 11.5-7.1h-4c-.8 5.4-10.4 5.3-10.7.1-.1-.9-.1-3.3-.1-3.3h14.9c.2-.3.1-1 .1-1.5zm-14.8-1.2l.1-3.9s-.1-3.6 3-3.6c2.7 0 2.8 3.7 2.8 3.7l.1 3.9-6-.1zm93-17.4h8.3v29.5h-8.3V10.9zm11.3 0h8.3v29.5h-8.3V10.9zm-152.1 7c-4.2 0-12.1 3-12.1 11.8 0 9.8 7.9 11.7 12.1 11.7 4.2 0 12.1-2.5 12.1-11.7 0-9.1-7.8-11.8-12.1-11.8zm0 20.6c-2.3 0-3.1-3.5-3.1-8.8 0-5.4.5-8.9 3.1-8.9 2.5 0 3 3.6 3 8.9.1 5.3-.4 8.8-3 8.8zM0 10.9h9V23h7V10.9h9.5v29.5H16v-13H9v13H0V10.9m54.3 29.4V18.7h8.2v2.1s3-2.5 6.6-2.5c3.3 0 6.5 2.3 7.1 5 .2.9.2 1.5.2 1.5v15.6h-8.1V26.1s.3-3.2-2.2-3.1c-2 .1-3.2 1.1-3.6 1.8v15.6l-8.2-.1" fill="#a74e50"/><path d="M100.1 43.9c0 2 1.1 4.8 4.8 4.8 3 0 5.8-1.7 6.8-4 .8-1.9 10.4-25.9 10.4-25.9l6.3 21.7h6.8l3.5-13 4.1 13h6.5l5.5-21.7H151l-3 11.4-3.9-11.4h-6.7L134 30.5l-3.4-11.7h-11.8l-4.2 10.4-4-10.4h-9.5s8.8 20.1 8.8 21.6c-.1 3.6-2.8 5.2-3.2 5.3.3-.4.6-1.3.6-2 0-2-1.6-3.6-3.6-3.6-1.9 0-3.6 1.6-3.6 3.8m78.2-14.4c0-6.5-4.8-11.7-11.6-11.7h-.1c-6.7 0-11.5 5.5-11.5 12s4.8 11.5 11.5 11.5c5.1 0 10.8-2.3 11.5-7.1h-4c-.8 5.4-10.4 5.3-10.7.1-.1-.9-.1-3.3-.1-3.3h14.9c.3-.3.1-1 .1-1.5zm-14.7-1.2l.1-3.9s-.1-3.6 3-3.6c2.7 0 2.8 3.7 2.8 3.7l.1 3.9-6-.1z" fill="#a74e50"/></svg>