<svg viewBox="0 0 200 60" id="mitsubishi-electric" xmlns="http://www.w3.org/2000/svg"><path d="M22.3 58.8H0l11.2-19.3h22.3L22.3 58.8zm22.3 0h22.3L55.8 39.5H33.5l11.1 19.3zm0-38.7L33.5.8 22.3 20.1l11.2 19.3 11.1-19.3z" fill="#c33e41"/><path d="M77 50.6h8.9v-3.2H77v-4h10v-3.2H73.2v18.7h14.1v-3.2H77v-5.1zm-.3-27.5l4 13.9h3.6l4-13.9V37h3.5V18.3h-5.4l-3.9 13.1-3.9-13.1h-5.4V37h3.5V23.1zm86.1-4.8H159V37h3.8V18.3zm3 21.8H162v18.7h3.8V40.1zM200 18.3h-3.8V37h3.8V18.3zm-102.9 0h-3.8V37h3.8V18.3zm93.9 7.3h-7.5v-7.3h-3.7V37h3.7v-8.2h7.5V37h3.7V18.3H191v7.3zM102.6 37h3.8V21.5h4.6v-3.2H98v3.2h4.6V37zM137 58.8h3.8V43.3h4.6v-3.2h-13v3.2h4.6v15.5zm-2.6-21.3c4.8 0 7.5-2.2 7.5-6.4V18.3h-3.8v13.2c0 1.6-1.4 2.9-3.7 2.9-2.8 0-3.7-1.6-3.7-2.9V18.3H127v12.9c0 4.4 2.8 6.3 7.4 6.3zM106 50.6h8.9v-3.2H106v-4h10v-3.2h-13.8v18.7h14.1v-3.2H106v-5.1zM147.1 37h5.4c3.5 0 5.6-2.1 5.6-5 0-2.4-1.7-4.4-3.6-4.9 1.6-.4 3-2.1 3-4.2 0-2.8-2-4.6-5.8-4.6h-8.4V37h3.8zm4.3-2.9H147v-5.4h4.4c1.6 0 2.9.9 2.9 2.7-.1 1.6-1.3 2.7-2.9 2.7zm.2-12.9c1 0 2.2 1 2.2 2.2 0 1.1-.8 2.4-2.4 2.4h-4.5v-4.6h4.7zm6 28.6c1.6-.5 3.3-1.9 3.3-4.5 0-3.3-2.3-5.2-6.1-5.2h-8.5v18.7h3.8v-7.4h3.2c1.9 0 3 1 3.3 2.3.4 1.5.3 3.7.6 5h3.8c-.4-1.4-.6-3.4-.7-4.9 0-2.5-1.4-3.5-2.7-4zm-7.5-1.4v-5.1h4.6c1.5 0 2.6 1.1 2.6 2.6 0 1-.9 2.5-2.5 2.5h-4.7zm-57.8-8.3h-3.8v18.7h12.6v-3.2h-8.8V40.1zm25.1-11c3 .5 4.8 1.1 4.8 2.9 0 1.2-1.2 2.4-3.7 2.4s-3.8-1.4-3.8-3.1H111c0 3.3 2.1 6.2 7.6 6.2 5.2 0 7.5-2.8 7.5-5.9 0-2.9-1.9-4.8-5.4-5.5-3.3-.7-5.6-.8-5.6-2.9 0-1.4 1.3-2.3 3.4-2.3 2.2 0 3.4 1.1 3.4 2.9h3.7c0-3-2.2-6-7.2-6-3.4 0-7 2-7 5.7-.1 3 2.2 4.9 6 5.6zm52.7 0c3 .5 4.8 1.1 4.8 2.9 0 1.2-1.2 2.4-3.7 2.4s-3.8-1.4-3.8-3.1h-3.6c0 3.3 2.1 6.2 7.6 6.2 5.2 0 7.5-2.8 7.5-5.9 0-2.9-1.9-4.8-5.4-5.5-3.3-.7-5.6-.8-5.6-2.9 0-1.4 1.3-2.3 3.4-2.3 2.2 0 3.4 1.1 3.4 2.9h3.7c0-3-2.2-6-7.2-6-3.4 0-7 2-7 5.7-.2 3 2.1 4.9 5.9 5.6z" fill="#030202"/><path d="M124.8 55.9c-3 0-4.8-3-4.8-6.5 0-3.6 1.7-6.5 4.8-6.5 2.3 0 3.5 1.4 4 3.2h3.9c-.6-3.7-3.5-6.4-8-6.4-5.7 0-8.6 4.4-8.6 9.8s3 9.8 8.6 9.8c4.5 0 7.5-2.6 8.1-6.6h-3.9c-.6 1.8-1.8 3.2-4.1 3.2zm50.7 0c-3 0-4.8-3-4.8-6.5 0-3.6 1.7-6.5 4.8-6.5 2.3 0 3.5 1.4 4 3.2h3.9c-.6-3.7-3.5-6.4-8-6.4-5.7 0-8.6 4.4-8.6 9.8s3 9.8 8.6 9.8c4.5 0 7.5-2.6 8.1-6.6h-3.9c-.6 1.8-1.9 3.2-4.1 3.2z" fill="#030202"/></svg>