<svg viewBox="0 0 176 60" id="siemens-energy" xmlns="http://www.w3.org/2000/svg"><path d="M12.1 10.5c-2.3-1-3.6-1.7-4.1-2-.7-.4-1-.9-1-1.5 0-1.6 1.5-2.5 4.5-2.5 2.1 0 4.4.5 6.9 1.5V1c-3.3-.6-5.9-1-7.6-1C7.6 0 5 .7 3 2.1c-2 1.4-3 3.4-3 6 0 2 .7 3.7 2.1 5.1 1.1 1 3.3 2.2 6.9 3.7 2 .8 3.2 1.4 3.6 1.9.5.4.7 1 .7 1.6 0 1.7-1.6 2.5-4.8 2.5-2.3 0-5-.5-7.9-1.4v5.3c2.7.6 5.5 1 8.3 1 3.2 0 5.9-.6 7.9-1.8 2.5-1.5 3.8-3.7 3.8-6.6 0-2-.6-3.6-1.9-4.9-1.2-1.3-3.4-2.5-6.6-4zm12.6 16.6h7.4V.5h-7.4v26.6zm21.4-11.4h10.4v-4.4H46.1v-6H58V.5H38.9v26.6h19.4V22H46.1v-6.3zm33.4 1.8L72.8.5h-9.6v26.6h5.2V8.2l7.7 19.1h4.6l7.8-19.1v18.9h7.1V.5h-9.2l-6.9 17zm30.1-1.8H120v-4.4h-10.4v-6h11.9V.5h-19.1v26.6h19.4V22h-12.2v-6.3zm34.9 2.6L135.4.5h-8.6v26.6h5.2V9l9.4 18.1h8.4V.5h-5.2v17.8zm22-7.8c-2.3-1-3.6-1.7-4.1-2-.6-.4-.9-.9-.9-1.5 0-1.6 1.5-2.5 4.5-2.5 2.1 0 4.4.5 6.9 1.5V1c-3.3-.6-5.9-1-7.6-1-3.2 0-5.8.7-7.8 2.1-2 1.4-3 3.4-3 6 0 2 .7 3.7 2.1 5.1 1.1 1 3.3 2.2 6.9 3.7 2 .8 3.2 1.4 3.6 1.9.5.4.7 1 .7 1.6 0 1.7-1.6 2.5-4.8 2.5-2.3 0-5-.5-7.9-1.4v5.3c2.7.6 5.5 1 8.3 1 3.2 0 5.9-.6 7.9-1.8 2.5-1.5 3.8-3.7 3.8-6.6 0-2-.6-3.6-1.9-4.9-1.3-1.3-3.4-2.5-6.7-4z" fill="#0d9a99"/><path d="M21.7 33.1c-2.3-.1-4.7-.2-7.1-.2s-4.7.1-7.1.2C3.3 33.3 0 36.8 0 41v10.8c0 4.2 3.3 7.7 7.5 7.9 2.3.1 4.7.2 7.1.2s4.7-.1 7.1-.2c4.2-.2 7.5-3.7 7.5-7.9v-.6h-3.4v.6c0 2.4-1.9 4.4-4.3 4.5-2.3.1-4.6.2-6.9.2s-4.6-.1-6.9-.2c-2.4-.1-4.3-2.1-4.3-4.5V41c0-2.4 1.9-4.4 4.3-4.5 2.3-.1 4.6-.2 6.9-.2s4.6.1 6.9.2c2.4.1 4.3 2.1 4.3 4.5v3.7H11.7v3.5h17.5V41c0-4.2-3.3-7.7-7.5-7.9zm30.6 0a54.413 54.413 0 00-11.4 0c-4.1.4-7.2 3.8-7.2 7.9v18.7h3.4V41c0-2.4 1.9-4.4 4.2-4.5 1.7-.1 3.5-.2 5.3-.2 1.8 0 3.5.1 5.3.2 2.4.2 4.2 2.1 4.2 4.5v18.7h3.4V41c0-4.1-3.1-7.5-7.2-7.9zm33.2 0c-2.3-.1-4.7-.2-7.1-.2s-4.7.1-7.1.2c-4.2.2-7.5 3.7-7.5 7.9v10.8c0 4.2 3.3 7.7 7.5 7.9 2.3.1 4.7.2 7.1.2s4.7-.1 7.1-.2c4.2-.2 7.5-3.7 7.5-7.9v-.6h-3.4v.6c0 2.4-1.9 4.4-4.3 4.5-2.3.1-4.6.2-6.9.2-2.3 0-4.6-.1-6.9-.2-2.4-.1-4.3-2.1-4.3-4.5V41c0-2.4 1.9-4.4 4.3-4.5 2.3-.1 4.6-.2 6.9-.2 2.3 0 4.6.1 6.9.2 2.4.1 4.3 2.1 4.3 4.5v3.7h-14v3.5h17.5V41c0-4.2-3.3-7.7-7.6-7.9zM97.9 41v18.7h3.4V41c0-2.4 2-4.5 4.3-4.5h6.9v-3.4h-7.1c-3.6 0-7.5 3.3-7.5 7.9zm38.8-7.9c-2.3-.1-4.7-.2-7.1-.2-2.4 0-4.7.1-7.1.2-4.2.2-7.5 3.7-7.5 7.9v10.8c0 4.2 3.3 7.7 7.5 7.9 2.3.1 4.7.2 7.1.2 2.4 0 4.7-.1 7.1-.2 4.2-.2 7.5-3.7 7.5-7.9v-7.2h-17.5v3.5h14.1v3.7c0 2.4-1.9 4.4-4.3 4.5-2.3.1-4.6.2-6.9.2-2.3 0-4.6-.1-6.9-.2-2.4-.1-4.3-2.1-4.3-4.5V41c0-2.4 1.9-4.4 4.3-4.5 2.3-.1 4.6-.2 6.9-.2 2.3 0 4.6.1 6.9.2 2.4.1 4.3 2.1 4.3 4.5v.6h3.4V41c0-4.2-3.3-7.7-7.5-7.9zm38.2 0h-4.3L159 48.5c-1 1.4-1.6 3-1.6 4.7v6.5h3.4v-6.5c0-1 .3-1.9.9-2.7l13.2-17.4zm-25.8 0h-4.5l12.2 14.5 2.1-2.8-9.8-11.7z" fill="#632787"/></svg>